<svg width="80" height="80" viewBox="0 0 80 80" fill="none" xmlns="http://www.w3.org/2000/svg">
<path d="M44.9998 68.3333V11.6666C44.9998 10.7825 44.6486 9.93468 44.0235 9.30956C43.3984 8.68444 42.5506 8.33325 41.6665 8.33325H4.99984C4.11578 8.33325 3.26794 8.68444 2.64281 9.30956C2.01769 9.93468 1.6665 10.7825 1.6665 11.6666V68.3333C1.6665 69.2173 2.01769 70.0652 2.64281 70.6903C3.26794 71.3154 4.11578 71.6666 4.99984 71.6666H41.6665C42.5506 71.6666 43.3984 71.3154 44.0235 70.6903C44.6486 70.0652 44.9998 69.2173 44.9998 68.3333Z" fill="#B0C9EE"/>
<path d="M48.3333 1.66675H10V8.33341H41.6667C42.5507 8.33341 43.3986 8.6846 44.0237 9.30973C44.6488 9.93485 45 10.7827 45 11.6667V26.6667H51.6667V5.00008C51.6667 4.11603 51.3155 3.26818 50.6904 2.64306C50.0652 2.01794 49.2174 1.66675 48.3333 1.66675Z" fill="#0C5B9D"/>
<path d="M38.3333 78.3333L29.49 68.0699C29.0696 67.565 28.7527 66.9822 28.5575 66.3548C28.3623 65.7274 28.2925 65.0677 28.3523 64.4133C28.4729 63.0918 29.1136 61.8724 30.1333 61.0232C31.1531 60.1741 32.4684 59.7649 33.7899 59.8855C35.1114 60.0062 36.3309 60.6468 37.18 61.6666L45 71.0866V38.3333C45 37.0072 45.5268 35.7354 46.4645 34.7977C47.4022 33.86 48.6739 33.3333 50 33.3333C51.3261 33.3333 52.5979 33.86 53.5355 34.7977C54.4732 35.7354 55 37.0072 55 38.3333V58.3333H65C68.5362 58.3333 71.9276 59.738 74.4281 62.2385C76.9286 64.739 78.3333 68.1304 78.3333 71.6666V78.3333" fill="#B0C9EE"/>
<path d="M38.3333 78.3333L29.49 68.0699C29.0696 67.565 28.7527 66.9822 28.5575 66.3548C28.3623 65.7274 28.2925 65.0677 28.3523 64.4133C28.4729 63.0918 29.1136 61.8724 30.1333 61.0232C31.1531 60.1741 32.4684 59.7649 33.7899 59.8855C35.1114 60.0062 36.3309 60.6468 37.18 61.6666L45 71.0866V38.3333C45 37.0072 45.5268 35.7354 46.4645 34.7977C47.4022 33.86 48.6739 33.3333 50 33.3333C51.3261 33.3333 52.5979 33.86 53.5355 34.7977C54.4732 35.7354 55 37.0072 55 38.3333V58.3333H65C68.5362 58.3333 71.9276 59.738 74.4281 62.2385C76.9286 64.739 78.3333 68.1304 78.3333 71.6666V78.3333" stroke="#0C5B9D" stroke-linecap="round" stroke-linejoin="round"/>
<path d="M44.3332 9.76325C44.0362 9.3283 43.6388 8.97128 43.1746 8.72237C42.7104 8.47347 42.1932 8.34 41.6665 8.33325H4.99984C4.11578 8.33325 3.26794 8.68444 2.64281 9.30956C2.01769 9.93468 1.6665 10.7825 1.6665 11.6666V52.4266L44.3332 9.76325Z" fill="white"/>
<path d="M44.9998 26.6666V11.6666C44.9998 10.7825 44.6486 9.93468 44.0235 9.30956C43.3984 8.68444 42.5506 8.33325 41.6665 8.33325H4.99984C4.11578 8.33325 3.26794 8.68444 2.64281 9.30956C2.01769 9.93468 1.6665 10.7825 1.6665 11.6666V68.3333C1.6665 69.2173 2.01769 70.0652 2.64281 70.6903C3.26794 71.3154 4.11578 71.6666 4.99984 71.6666H19.9998" stroke="#0C5B9D" stroke-linecap="round" stroke-linejoin="round"/>
<path d="M51.6667 26.6667V5.00008C51.6667 4.11603 51.3155 3.26818 50.6904 2.64306C50.0652 2.01794 49.2174 1.66675 48.3333 1.66675H10" stroke="#0C5B9D" stroke-linecap="round" stroke-linejoin="round"/>
<path d="M11.6665 51.6667H34.9998" stroke="#0C5B9D" stroke-linecap="round" stroke-linejoin="round"/>
<path d="M23.3333 29.9999C24.4871 29.9999 25.6149 29.6578 26.5742 29.0168C27.5334 28.3759 28.2811 27.4648 28.7226 26.3989C29.1641 25.333 29.2797 24.1601 29.0546 23.0286C28.8295 21.897 28.2739 20.8576 27.4581 20.0418C26.6423 19.226 25.6029 18.6704 24.4714 18.4453C23.3398 18.2203 22.1669 18.3358 21.101 18.7773C20.0351 19.2188 19.1241 19.9665 18.4831 20.9258C17.8421 21.885 17.5 23.0129 17.5 24.1666C17.4996 24.9328 17.6501 25.6915 17.9431 26.3994C18.2361 27.1074 18.6658 27.7506 19.2076 28.2924C19.7493 28.8341 20.3926 29.2638 21.1005 29.5568C21.8084 29.8498 22.5672 30.0004 23.3333 29.9999Z" fill="#B0C9EE" stroke="#0C5B9D" stroke-linecap="round" stroke-linejoin="round"/>
<path d="M34.9998 41.6666C34.3388 39.0741 32.8331 36.7757 30.7204 35.1342C28.6078 33.4927 26.0086 32.6016 23.3332 32.6016C20.6578 32.6016 18.0586 33.4927 15.9459 35.1342C13.8333 36.7757 12.3276 39.0741 11.6665 41.6666H34.9998Z" fill="#0C5B9D" stroke="#0C5B9D" stroke-linecap="round" stroke-linejoin="round"/>
<path d="M66.5 15C66.489 17.827 67.868 19.433 71 19.5C68.093 19.489 66.648 21.049 66.5 24C66.475 21.216 65.227 19.5 62 19.5C64.888 19.46 66.489 18.066 66.5 15Z" fill="white" stroke="#0C5B9D" stroke-linecap="round" stroke-linejoin="round"/>
<path d="M5.5 2C5.45596 2.33875 5.4903 2.68308 5.60036 3.00646C5.71043 3.32984 5.89328 3.62363 6.13483 3.86517C6.37637 4.10672 6.67016 4.28957 6.99354 4.39964C7.31692 4.5097 7.66125 4.54404 8 4.5C6.385 4.494 5.582 5.36 5.5 7C5.54824 6.66045 5.51682 6.31434 5.40825 5.98903C5.29967 5.66371 5.1169 5.36811 4.87439 5.12561C4.63188 4.8831 4.33629 4.70033 4.01097 4.59175C3.68566 4.48318 3.33955 4.45176 3 4.5C3.33871 4.54383 3.68295 4.50935 4.00624 4.39921C4.32952 4.28908 4.62322 4.10622 4.86472 3.86472C5.10622 3.62322 5.28908 3.32952 5.39922 3.00624C5.50935 2.68295 5.54383 2.33871 5.5 2Z" fill="white" stroke="#0C5B9D" stroke-linecap="round" stroke-linejoin="round"/>
<path d="M65.5 45V52" stroke="#0C5B9D" stroke-linecap="round" stroke-linejoin="round"/>
<path d="M68 48.5H63" stroke="#0C5B9D" stroke-linecap="round" stroke-linejoin="round"/>
</svg>
